# Blender v2.92.0 OBJ File: 'side buildings.blend'
# www.blender.org
o Plane.001
v -1.000000 0.000000 -1.000000
v 1.000000 0.000000 -1.000000
v 1.000000 0.945245 -1.000000
v -1.000000 0.949538 -1.000000
v 0.630452 1.000000 -1.000000
v 0.496265 1.000000 -1.000000
v -0.742193 1.000000 -1.000000
v -0.881505 1.000000 -1.000000
v -0.886223 0.948197 -1.000000
v -0.843552 0.991229 -1.000000
v -0.764630 0.990506 -1.000000
v -0.658997 0.979810 -1.000000
v -0.659760 0.956043 -1.000000
v -0.655146 0.946184 -1.000000
v -0.467113 0.947315 -1.000000
v -0.429891 0.951878 -1.000000
v -0.151704 0.945685 -1.000000
v -0.102472 0.947611 -1.000000
v -0.105110 0.934465 -1.000000
v 0.004884 0.932378 -1.000000
v 0.112351 0.929631 -1.000000
v 0.122024 0.946066 -1.000000
v 0.228654 0.945972 -1.000000
v 0.371969 0.946488 -1.000000
v 0.448736 0.950955 -1.000000
v 0.452744 0.974795 -1.000000
v 0.558756 0.991371 -1.000000
v 0.823773 0.992153 -1.000000
v 0.898112 0.971403 -1.000000
v 0.893350 0.950192 -1.000000
vt 0.447445 0.934464
vt 0.448764 0.947611
vt 0.424148 0.945685
vt 0.000000 0.949538
vt 0.000000 0.000000
vt 0.056888 0.948197
vt 1.000000 0.000000
vt 0.556175 0.929631
vt 0.172427 0.946184
vt 1.000000 0.945245
vt 0.946675 0.950192
vt 0.949056 0.971402
vt 0.911887 0.992153
vt 0.815226 1.000000
vt 0.779378 0.991370
vt 0.724368 0.950955
vt 0.748133 1.000000
vt 0.726372 0.974794
vt 0.266444 0.947315
vt 0.078224 0.991229
vt 0.059247 1.000000
vt 0.170501 0.979810
vt 0.128904 1.000000
vt 0.117685 0.990506
vt 0.170120 0.956043
vt 0.685984 0.946488
vt 0.614327 0.945972
vt 0.561012 0.946066
vt 0.285054 0.951878
vt 0.502442 0.932378
vn 0.0000 0.0000 1.0000
s off
f 19/1/1 18/2/1 17/3/1
f 4/4/1 1/5/1 9/6/1
f 1/5/1 2/7/1 21/8/1
f 9/6/1 1/5/1 14/9/1
f 2/7/1 3/10/1 30/11/1
f 30/11/1 29/12/1 28/13/1
f 28/13/1 5/14/1 30/11/1
f 5/14/1 27/15/1 25/16/1
f 30/11/1 5/14/1 25/16/1
f 27/15/1 6/17/1 26/18/1
f 27/15/1 26/18/1 25/16/1
f 14/9/1 1/5/1 15/19/1
f 10/20/1 8/21/1 9/6/1
f 12/22/1 7/23/1 11/24/1
f 11/24/1 10/20/1 9/6/1
f 2/7/1 30/11/1 25/16/1
f 11/24/1 9/6/1 14/9/1
f 13/25/1 12/22/1 11/24/1
f 14/9/1 13/25/1 11/24/1
f 2/7/1 25/16/1 24/26/1
f 23/27/1 22/28/1 21/8/1
f 2/7/1 24/26/1 21/8/1
f 24/26/1 23/27/1 21/8/1
f 15/19/1 1/5/1 19/1/1
f 17/3/1 16/29/1 19/1/1
f 16/29/1 15/19/1 19/1/1
f 21/8/1 20/30/1 1/5/1
f 20/30/1 19/1/1 1/5/1
