# Blender v2.91.0 OBJ File: 'room stuff.blend'
# www.blender.org
o left_off_Cube.001
v 19.500000 9.999997 19.500004
v -20.500000 -9.999996 -20.500000
v 19.500000 10.000004 -20.499996
v -20.500000 9.999997 19.500004
v -20.500000 -9.999996 -20.500000
v 19.500000 -9.000003 19.500000
v 19.500000 -8.999996 -20.500000
v -20.500000 -9.000003 19.500000
v -20.500000 -10.000004 20.500000
v -20.500000 9.999996 20.500004
v 20.500000 -9.999996 -20.500000
v 20.500000 10.000004 -20.499996
v 20.500000 9.999996 20.500004
v 20.500000 -10.000004 20.500000
v -20.500000 -8.999997 -19.500000
v -19.500000 -8.999996 -20.500000
v -19.500000 -8.999997 -19.500000
v -20.500000 9.999996 -20.500000
v -19.500000 9.999996 -20.500000
v -20.500000 9.999995 -19.500000
v -19.500000 9.999995 -19.500000
vt 0.000000 0.000000
vt 0.000000 0.000000
vt 0.000000 0.000000
vt 0.754765 0.991387
vt 0.506994 0.469762
vt 0.754765 0.469762
vt 0.000000 0.000000
vt 0.000000 0.000000
vt 0.000000 0.000000
vt 0.000000 0.000000
vt 0.745250 0.658750
vt 0.993022 0.137125
vt 0.993021 0.658750
vt 0.500232 0.043979
vt 0.986697 0.069582
vt 0.500232 0.069582
vt 0.125000 0.500000
vt 0.000000 0.000000
vt 0.986697 0.095186
vt 0.500232 0.095186
vt 0.375000 0.500000
vt 0.000000 0.000000
vt 0.125000 0.500000
vt 0.125000 0.500000
vt 0.012413 0.987087
vt -0.000085 0.499685
vt 0.499816 0.499685
vt 0.000000 0.000000
vt 0.000000 0.000000
vt 0.506994 0.991387
vt 0.745250 0.137125
vt 0.986697 0.043978
vt 0.125000 0.750000
vt 0.125000 0.500000
vt 0.125000 0.500000
vt 0.499816 0.999585
vt 0.012413 0.999584
vt -0.000085 0.987087
vn 0.0000 1.0000 0.0000
vn -1.0000 -0.0000 0.0000
vn 0.0000 -1.0000 -0.0000
vn 0.0000 -0.0000 1.0000
vn 1.0000 0.0000 0.0000
vn 0.0000 0.0000 -1.0000
s off
f 1/1/1 10/2/1 13/3/1
f 3/4/2 6/5/2 1/6/2
f 14/7/3 5/8/3 11/9/3
f 10/2/4 14/7/4 13/3/4
f 14/7/5 12/10/5 13/3/5
f 6/11/6 4/12/6 1/13/6
f 16/14/5 21/15/5 17/16/5
f 15/17/2 5/8/2 9/18/2
f 17/16/4 20/19/4 15/20/4
f 5/8/6 7/21/6 11/9/6
f 18/22/1 21/23/1 19/24/1
f 17/25/1 8/26/1 6/27/1
f 1/1/1 4/28/1 10/2/1
f 13/3/1 12/10/1 1/1/1
f 12/10/1 3/29/1 1/1/1
f 3/4/2 7/30/2 6/5/2
f 14/7/3 9/18/3 5/8/3
f 10/2/4 9/18/4 14/7/4
f 14/7/5 11/9/5 12/10/5
f 6/11/6 8/31/6 4/12/6
f 16/14/5 19/32/5 21/15/5
f 9/18/2 10/2/2 8/33/2
f 10/2/2 4/28/2 8/33/2
f 20/34/2 18/22/2 15/17/2
f 18/22/2 5/8/2 15/17/2
f 9/18/2 8/33/2 15/17/2
f 17/16/4 21/15/4 20/19/4
f 5/8/6 18/22/6 16/35/6
f 18/22/6 19/24/6 16/35/6
f 3/29/6 12/10/6 7/21/6
f 12/10/6 11/9/6 7/21/6
f 5/8/6 16/35/6 7/21/6
f 18/22/1 20/34/1 21/23/1
f 6/27/1 7/36/1 17/25/1
f 7/36/1 16/37/1 17/25/1
f 17/25/1 15/38/1 8/26/1
l 5 2
