# Blender v2.91.0 OBJ File: 'straight.blend'
# www.blender.org
o staright_Cube.005
v -20.499998 9.999994 19.500004
v 20.499996 -9.000006 19.499996
v 20.499996 9.999994 19.500004
v 20.499996 -10.000008 20.499996
v 20.499996 -8.999994 -19.500002
v 20.499996 -9.999992 -20.500004
v -20.499998 -9.999992 -20.500004
v -20.499998 -8.999994 -19.500002
v 20.499996 10.000006 -19.499996
v -20.499998 10.000006 -19.499996
v 20.499996 10.000008 -20.499996
v -20.499998 -9.000006 19.499996
v -20.499998 -10.000008 20.499996
v 20.499996 9.999992 20.500004
v -20.499998 10.000008 -20.499996
v -20.499998 9.999992 20.500004
vt 0.523405 0.367716
vt 0.807722 0.981242
vt 0.523405 0.981242
vt 0.170784 0.527286
vt 0.176684 0.291250
vt 0.170784 0.285349
vt 0.347679 0.385026
vt 0.461357 0.498704
vt 0.461357 0.385026
vt 0.973574 0.046562
vt 0.645553 0.754397
vt 0.973574 0.754397
vt 0.022775 0.253383
vt 0.264713 0.247482
vt 0.264713 0.253383
vt 0.008738 0.993493
vt 0.491262 0.534507
vt 0.491262 0.993493
vt 0.281975 0.117732
vt 0.482025 0.215318
vt 0.482025 0.117732
vt 0.013370 0.161869
vt 0.255308 0.043851
vt 0.255308 0.161869
vt 0.027639 0.523665
vt 0.027639 0.281728
vt 0.033540 0.517764
vt 0.312458 0.281482
vt 0.318359 0.523419
vt 0.312458 0.523419
vt 0.807722 0.367716
vt 0.288802 0.527286
vt 0.176684 0.521385
vt 0.288802 0.521385
vt 0.288802 0.291250
vt 0.288802 0.285349
vt 0.347679 0.498704
vt 0.645553 0.046562
vt 0.022775 0.247482
vt 0.008738 0.534507
vt 0.281975 0.215318
vt 0.013370 0.043851
vt 0.145657 0.517764
vt 0.145657 0.523665
vt 0.145657 0.281728
vt 0.033540 0.287629
vt 0.145657 0.287629
vt 0.318359 0.281482
vn 0.0000 -0.0000 1.0000
vn -1.0000 0.0000 0.0000
vn 0.0000 1.0000 0.0000
vn 0.0000 0.0000 -1.0000
vn 0.0000 -1.0000 -0.0000
vn 1.0000 0.0000 0.0000
s 1
f 1/1/1 2/2/1 3/3/1
f 4/4/2 5/5/2 6/6/2
f 7/7/3 4/8/3 6/9/3
f 8/10/4 9/11/4 5/12/4
f 10/13/5 11/14/5 9/15/5
f 12/16/5 5/17/5 2/18/5
f 13/19/4 14/20/4 4/21/4
f 15/22/1 6/23/1 11/24/1
f 13/25/6 7/26/6 12/27/6
f 16/28/5 3/29/5 14/30/5
f 1/1/1 12/31/1 2/2/1
f 4/4/2 14/32/2 2/33/2
f 14/32/2 3/34/2 2/33/2
f 9/35/2 11/36/2 5/5/2
f 11/36/2 6/6/2 5/5/2
f 4/4/2 2/33/2 5/5/2
f 7/7/3 13/37/3 4/8/3
f 8/10/4 10/38/4 9/11/4
f 10/13/5 15/39/5 11/14/5
f 12/16/5 8/40/5 5/17/5
f 13/19/4 16/41/4 14/20/4
f 15/22/1 7/42/1 6/23/1
f 12/27/6 1/43/6 16/44/6
f 7/26/6 15/45/6 8/46/6
f 15/45/6 10/47/6 8/46/6
f 12/27/6 16/44/6 13/25/6
f 7/26/6 8/46/6 12/27/6
f 16/28/5 1/48/5 3/29/5
o Cube.001
v -4.908813 -2.454381 14.071945
v -4.908813 -2.454381 19.500000
v -4.908813 -1.164015 19.500000
v 7.843078 -2.454381 14.071945
v 7.843078 -2.454381 19.500000
v 7.843078 -1.164015 19.500000
v -4.908813 -1.164015 15.308417
v 7.843078 -1.164015 15.308417
v 7.843078 2.221508 15.308417
v 7.843078 2.221508 14.071945
v -4.908813 2.221508 14.071945
v -4.908813 2.221508 15.308417
vt 0.625000 0.250000
vt 0.375000 0.250000
vt 0.375000 0.500000
vt 0.625000 0.750000
vt 0.375000 0.750000
vt 0.375000 1.000000
vt 0.625000 0.693052
vt 0.875000 0.693052
vt 0.625000 0.693052
vt 0.875000 0.500000
vt 0.625000 0.500000
vt 0.375000 0.000000
vt 0.625000 0.056948
vt 0.125000 0.500000
vt 0.125000 0.750000
vt 0.875000 0.693052
vt 0.625000 1.000000
vt 0.625000 0.000000
vt 0.625000 0.056948
vt 0.875000 0.750000
vn 0.0000 0.0000 1.0000
vn 0.0000 0.0000 -1.0000
vn 1.0000 0.0000 0.0000
vn 0.0000 1.0000 0.0000
vn -1.0000 0.0000 0.0000
vn 0.0000 -1.0000 0.0000
s off
f 19/49/7 18/50/7 21/51/7
f 26/52/8 20/53/8 17/54/8
f 24/55/9 20/53/9 26/52/9
f 23/56/7 24/55/7 25/57/7
f 19/58/10 22/59/10 24/55/10
f 17/60/11 18/50/11 23/61/11
f 21/51/12 18/62/12 17/63/12
f 28/64/10 25/57/10 26/52/10
f 19/49/7 21/51/7 22/59/7
f 26/52/8 17/54/8 27/65/8
f 24/55/9 26/52/9 25/57/9
f 20/53/9 24/55/9 21/51/9
f 21/51/9 24/55/9 22/59/9
f 23/56/7 25/57/7 28/64/7
f 19/58/10 24/55/10 23/56/10
f 17/60/11 23/61/11 27/66/11
f 27/66/11 23/61/11 28/67/11
f 23/61/11 18/50/11 19/49/11
f 21/51/12 17/63/12 20/53/12
f 28/64/10 26/52/10 27/68/10
o Cube.002
v -15.217843 -9.000002 9.174387
v -15.217843 1.045849 9.174387
v -15.217843 -9.000002 0.491840
v -15.217843 1.045849 0.491840
v -3.582032 -9.000002 9.174387
v -3.582032 1.045849 9.174387
v -3.582032 -9.000002 0.491840
v -3.582032 1.045849 0.491840
vt 0.625000 0.000000
vt 0.375000 0.250000
vt 0.375000 0.000000
vt 0.625000 0.250000
vt 0.375000 0.500000
vt 0.625000 0.500000
vt 0.375000 0.750000
vt 0.625000 0.750000
vt 0.375000 1.000000
vt 0.125000 0.750000
vt 0.125000 0.500000
vt 0.875000 0.500000
vt 0.625000 1.000000
vt 0.875000 0.750000
vn -1.0000 0.0000 0.0000
vn 0.0000 0.0000 -1.0000
vn 1.0000 0.0000 0.0000
vn 0.0000 0.0000 1.0000
vn 0.0000 -1.0000 0.0000
vn 0.0000 1.0000 0.0000
s off
f 30/69/13 31/70/13 29/71/13
f 32/72/14 35/73/14 31/70/14
f 36/74/15 33/75/15 35/73/15
f 34/76/16 29/77/16 33/75/16
f 35/73/17 29/78/17 31/79/17
f 32/80/18 34/76/18 36/74/18
f 30/69/13 32/72/13 31/70/13
f 32/72/14 36/74/14 35/73/14
f 36/74/15 34/76/15 33/75/15
f 34/76/16 30/81/16 29/77/16
f 35/73/17 33/75/17 29/78/17
f 32/80/18 30/82/18 34/76/18
o Cube.003
v -3.403192 5.637073 -15.516953
v -3.403192 6.267623 -15.516953
v -3.403192 5.637073 -19.690773
v -3.403192 6.267623 -19.690773
v 10.983337 5.637073 -15.516953
v 10.983337 6.267623 -15.516953
v 10.983337 5.637073 -19.690773
v 10.983337 6.267623 -19.690773
vt 0.625000 0.000000
vt 0.375000 0.250000
vt 0.375000 0.000000
vt 0.625000 0.250000
vt 0.375000 0.500000
vt 0.625000 0.500000
vt 0.375000 0.750000
vt 0.625000 0.750000
vt 0.375000 1.000000
vt 0.125000 0.750000
vt 0.125000 0.500000
vt 0.875000 0.500000
vt 0.625000 1.000000
vt 0.875000 0.750000
vn -1.0000 0.0000 0.0000
vn 0.0000 0.0000 -1.0000
vn 1.0000 0.0000 0.0000
vn 0.0000 0.0000 1.0000
vn 0.0000 -1.0000 0.0000
vn 0.0000 1.0000 0.0000
s off
f 38/83/19 39/84/19 37/85/19
f 40/86/20 43/87/20 39/84/20
f 44/88/21 41/89/21 43/87/21
f 42/90/22 37/91/22 41/89/22
f 43/87/23 37/92/23 39/93/23
f 40/94/24 42/90/24 44/88/24
f 38/83/19 40/86/19 39/84/19
f 40/86/20 44/88/20 43/87/20
f 44/88/21 42/90/21 41/89/21
f 42/90/22 38/95/22 37/91/22
f 43/87/23 41/89/23 37/92/23
f 40/94/24 38/96/24 42/90/24
o Cube.004
v 10.983337 -9.000001 -19.500000
v 10.983337 4.975071 -19.500000
v 10.983337 -9.000001 -0.841687
v 10.983337 2.953007 -0.841687
v 12.983337 -9.000001 -19.500000
v 12.983337 4.975071 -19.500000
v 12.983337 -9.000001 -0.841687
v 12.983337 2.953007 -0.841687
v 10.983337 -9.000001 -10.170843
v 10.983337 2.953007 -10.170843
v 12.983337 -9.000001 -10.170843
v 12.983337 2.953007 -10.170843
v 12.983337 7.907255 -10.170843
v 12.983337 7.907255 -19.500000
v 10.983337 7.907255 -19.500000
v 10.983337 7.907255 -10.170843
vt 0.625000 0.250000
vt 0.375000 0.250000
vt 0.375000 0.500000
vt 0.625000 0.750000
vt 0.375000 0.750000
vt 0.375000 1.000000
vt 0.375000 0.625000
vt 0.125000 0.625000
vt 0.125000 0.750000
vt 0.875000 0.625000
vt 0.625000 0.625000
vt 0.625000 0.625000
vt 0.875000 0.500000
vt 0.625000 0.500000
vt 0.125000 0.500000
vt 0.625000 0.125000
vt 0.375000 0.125000
vt 0.875000 0.625000
vt 0.625000 0.750000
vt 0.625000 1.000000
vt 0.625000 1.000000
vt 0.375000 0.000000
vt 0.625000 0.000000
vt 0.625000 0.125000
vt 0.625000 0.000000
vt 0.875000 0.750000
vn 0.0000 0.0000 1.0000
vn 0.0000 0.0000 -1.0000
vn 0.0000 -1.0000 0.0000
vn 0.0000 1.0000 0.0000
vn -1.0000 0.0000 0.0000
vn 1.0000 0.0000 0.0000
s off
f 48/97/25 47/98/25 51/99/25
f 50/100/26 49/101/26 45/102/26
f 55/103/27 53/104/27 45/105/27
f 54/106/25 56/107/25 57/108/25
f 48/109/28 52/110/28 56/107/28
f 51/99/27 47/111/27 53/104/27
f 54/112/29 53/113/29 47/98/29
f 55/103/30 56/107/30 51/99/30
f 60/114/28 57/108/28 58/115/28
f 50/100/26 46/116/26 59/117/26
f 48/97/25 51/99/25 52/110/25
f 50/100/26 45/102/26 46/116/26
f 55/103/27 45/105/27 49/101/27
f 54/106/25 57/108/25 60/114/25
f 48/109/28 56/107/28 54/106/28
f 51/99/27 53/104/27 55/103/27
f 45/118/29 54/112/29 46/119/29
f 46/119/29 60/120/29 59/121/29
f 45/118/29 53/113/29 54/112/29
f 60/120/29 46/119/29 54/112/29
f 54/112/29 47/98/29 48/97/29
f 56/107/30 50/100/30 57/108/30
f 57/108/30 50/100/30 58/115/30
f 50/100/30 56/107/30 49/101/30
f 49/101/30 56/107/30 55/103/30
f 51/99/30 56/107/30 52/110/30
f 60/114/28 58/115/28 59/122/28
f 50/100/26 59/117/26 58/115/26
o Cube.005
v -14.023921 -8.902690 -13.099982
v -14.023921 -0.044521 -13.099982
v -14.023921 -8.902690 -19.500002
v -14.023921 -0.044521 -19.500002
v -9.046147 -8.902690 -13.099982
v -9.046147 -0.044521 -13.099982
v -9.046147 -8.902690 -19.500002
v -9.046147 -0.044521 -19.500002
vt 0.625000 0.000000
vt 0.375000 0.250000
vt 0.375000 0.000000
vt 0.625000 0.250000
vt 0.375000 0.500000
vt 0.625000 0.500000
vt 0.375000 0.750000
vt 0.625000 0.750000
vt 0.375000 1.000000
vt 0.125000 0.750000
vt 0.125000 0.500000
vt 0.875000 0.500000
vt 0.625000 1.000000
vt 0.875000 0.750000
vn -1.0000 0.0000 0.0000
vn 0.0000 0.0000 -1.0000
vn 1.0000 0.0000 0.0000
vn 0.0000 0.0000 1.0000
vn 0.0000 -1.0000 0.0000
vn 0.0000 1.0000 0.0000
s off
f 62/123/31 63/124/31 61/125/31
f 64/126/32 67/127/32 63/124/32
f 68/128/33 65/129/33 67/127/33
f 66/130/34 61/131/34 65/129/34
f 67/127/35 61/132/35 63/133/35
f 64/134/36 66/130/36 68/128/36
f 62/123/31 64/126/31 63/124/31
f 64/126/32 68/128/32 67/127/32
f 68/128/33 66/130/33 65/129/33
f 66/130/34 62/135/34 61/131/34
f 67/127/35 65/129/35 61/132/35
f 64/134/36 62/136/36 66/130/36
o Cube.006
v -8.296360 -3.862625 0.491842
v -8.296360 -3.862625 -5.384440
v -0.982098 -3.862625 0.491842
v -0.982098 -3.862625 -5.384440
v -8.296360 -9.000000 -5.384440
v -8.296360 -9.000000 0.491842
v -0.982098 -9.000000 -5.384440
v -0.982098 -9.000000 0.491842
vt 0.375000 0.500000
vt 0.625000 0.250000
vt 0.625000 0.500000
vt 0.375000 0.750000
vt 0.625000 0.750000
vt 0.375000 1.000000
vt 0.625000 1.000000
vt 0.875000 0.500000
vt 0.125000 0.750000
vt 0.125000 0.500000
vt 0.375000 0.250000
vt 0.625000 0.000000
vt 0.875000 0.750000
vt 0.375000 0.000000
vn 0.0000 0.0000 -1.0000
vn 1.0000 0.0000 0.0000
vn 0.0000 0.0000 1.0000
vn 0.0000 1.0000 0.0000
vn 0.0000 -1.0000 0.0000
vn -1.0000 0.0000 0.0000
s off
f 75/137/37 70/138/37 72/139/37
f 76/140/38 72/139/38 71/141/38
f 74/142/39 71/141/39 69/143/39
f 70/144/40 71/141/40 72/139/40
f 75/137/41 74/145/41 73/146/41
f 73/147/42 69/148/42 70/138/42
f 75/137/37 73/147/37 70/138/37
f 76/140/38 75/137/38 72/139/38
f 74/142/39 76/140/39 71/141/39
f 70/144/40 69/149/40 71/141/40
f 75/137/41 76/140/41 74/145/41
f 73/147/42 74/150/42 69/148/42
o Cube.007
v 14.976985 -4.208673 13.355835
v 14.976985 -9.000006 13.355835
v 14.976985 -4.208673 19.500000
v 14.976985 -9.000006 19.500000
v 9.644183 -4.208673 13.355835
v 9.644183 -9.000006 13.355835
v 9.644183 -4.208673 19.500000
v 9.644183 -9.000006 19.500000
vt 0.875000 0.500000
vt 0.625000 0.750000
vt 0.625000 0.500000
vt 0.375000 1.000000
vt 0.375000 0.750000
vt 0.625000 0.000000
vt 0.375000 0.250000
vt 0.375000 0.000000
vt 0.375000 0.500000
vt 0.125000 0.750000
vt 0.125000 0.500000
vt 0.625000 0.250000
vt 0.875000 0.750000
vt 0.625000 1.000000
vn 0.0000 1.0000 0.0000
vn 0.0000 0.0000 1.0000
vn -1.0000 0.0000 0.0000
vn 0.0000 -1.0000 0.0000
vn 1.0000 0.0000 0.0000
vn 0.0000 0.0000 -1.0000
s off
f 81/151/43 79/152/43 77/153/43
f 79/152/44 84/154/44 80/155/44
f 83/156/45 82/157/45 84/158/45
f 78/159/46 84/160/46 82/161/46
f 77/153/47 80/155/47 78/159/47
f 81/162/48 78/159/48 82/157/48
f 81/151/43 83/163/43 79/152/43
f 79/152/44 83/164/44 84/154/44
f 83/156/45 81/162/45 82/157/45
f 78/159/46 80/155/46 84/160/46
f 77/153/47 79/152/47 80/155/47
f 81/162/48 77/153/48 78/159/48
o Cube.008
v -5.604630 -4.194160 -14.638842
v -9.046146 -4.194160 -14.638842
v -5.604630 -4.194160 -19.500006
v -9.046146 -4.194160 -19.500006
v -9.046146 -8.999997 -14.638842
v -5.604630 -8.999997 -14.638842
v -9.046146 -8.999997 -19.500006
v -5.604630 -8.999997 -19.500006
vt 0.375000 0.500000
vt 0.625000 0.250000
vt 0.625000 0.500000
vt 0.375000 0.750000
vt 0.625000 0.750000
vt 0.375000 1.000000
vt 0.625000 1.000000
vt 0.875000 0.500000
vt 0.125000 0.750000
vt 0.125000 0.500000
vt 0.375000 0.250000
vt 0.625000 0.000000
vt 0.875000 0.750000
vt 0.375000 0.000000
vn -1.0000 0.0000 0.0000
vn 0.0000 0.0000 -1.0000
vn 1.0000 0.0000 0.0000
vn 0.0000 1.0000 0.0000
vn 0.0000 -1.0000 0.0000
vn 0.0000 0.0000 1.0000
s off
f 91/165/49 86/166/49 88/167/49
f 92/168/50 88/167/50 87/169/50
f 90/170/51 87/169/51 85/171/51
f 86/172/52 87/169/52 88/167/52
f 91/165/53 90/173/53 89/174/53
f 89/175/54 85/176/54 86/166/54
f 91/165/49 89/175/49 86/166/49
f 92/168/50 91/165/50 88/167/50
f 90/170/51 92/168/51 87/169/51
f 86/172/52 85/177/52 87/169/52
f 91/165/53 92/168/53 90/173/53
f 89/175/54 90/178/54 85/176/54
