# Blender v2.91.2 OBJ File: 'torch.blend'
# www.blender.org
o Cylinder
v -0.000000 -0.320048 -0.252034
v -0.000000 0.850850 -0.365236
v 0.197048 -0.320048 -0.157141
v 0.285553 0.850850 -0.227721
v 0.245715 -0.320048 0.056083
v 0.356079 0.850850 0.081273
v 0.109354 -0.320048 0.227075
v 0.158470 0.850850 0.329067
v -0.109354 -0.320048 0.227075
v -0.158470 0.850850 0.329067
v -0.245715 -0.320048 0.056083
v -0.356079 0.850850 0.081273
v -0.197048 -0.320048 -0.157141
v -0.285553 0.850850 -0.227721
v -0.000000 0.266807 -0.326494
v 0.255264 0.266807 -0.203566
v 0.318309 0.266807 0.072652
v 0.141661 0.266807 0.294161
v -0.141661 0.266807 0.294161
v -0.318309 0.266807 0.072652
v -0.255264 0.266807 -0.203566
v -0.000000 -0.855697 0.000000
v -0.000000 -0.855697 0.000000
v -0.000000 -0.855697 0.000000
v -0.000000 -0.855697 0.000000
v -0.000000 -0.855697 0.000000
v -0.000000 -0.855697 0.000000
v -0.000000 -0.855697 0.000000
v 0.340731 1.159379 -0.271724
v -0.000000 1.159379 -0.435811
v 0.424884 1.159379 0.096977
v 0.189091 1.159379 0.392652
v -0.189091 1.159379 0.392652
v -0.424884 1.159379 0.096977
v -0.340731 1.159379 -0.271724
v 0.371952 1.292001 -0.296622
v 0.000000 1.292001 -0.475744
v 0.463816 1.292001 0.105863
v 0.206418 1.292001 0.428631
v -0.206418 1.292001 0.428631
v -0.463816 1.292001 0.105863
v -0.371952 1.292001 -0.296622
v 0.505799 1.433404 -0.403361
v 0.000000 1.433404 -0.646941
v 0.630721 1.433404 0.143958
v 0.280697 1.433404 0.582873
v -0.280697 1.433404 0.582873
v -0.630720 1.433404 0.143958
v -0.505799 1.433404 -0.403361
v -0.017145 1.429481 0.167271
v -0.080029 1.429481 0.151138
v -0.151758 1.429481 0.047067
v -0.156431 1.429481 -0.074254
v -0.100058 1.429481 -0.130889
v -0.028277 1.429481 -0.188223
v 0.089090 1.429481 -0.126357
v 0.145180 1.429481 0.007907
v 0.099115 1.429481 0.133394
v -0.014035 1.555700 0.272105
v -0.113831 1.555700 0.246503
v -0.227663 1.555700 0.081344
v -0.235078 1.555700 -0.111190
v -0.145616 1.555700 -0.201068
v -0.031700 1.555700 -0.292056
v 0.154558 1.555700 -0.193875
v 0.243572 1.555700 0.019198
v 0.170467 1.555700 0.218343
v -0.013178 1.680174 0.301832
v -0.122643 1.680174 0.273748
v -0.247506 1.680174 0.092586
v -0.255640 1.680174 -0.118606
v -0.157508 1.680174 -0.217193
v -0.032555 1.680174 -0.316998
v 0.171752 1.680174 -0.209303
v 0.269392 1.680174 0.024417
v 0.189203 1.680174 0.242859
v -0.014176 1.797601 0.270871
v -0.110141 1.797601 0.246251
v -0.219605 1.797601 0.087430
v -0.226736 1.797601 -0.097715
v -0.140706 1.797601 -0.184144
v -0.031163 1.797601 -0.271640
v 0.147947 1.797601 -0.177227
v 0.233545 1.797601 0.027669
v 0.163246 1.797601 0.219171
v -0.003738 1.859879 0.228446
v -0.059230 1.859879 0.214209
v -0.122527 1.859879 0.122372
v 0.139507 1.859879 0.087815
v 0.098857 1.859879 0.198551
v -0.172180 1.869924 0.037403
v -0.177433 1.869924 -0.099002
v -0.114051 1.869924 -0.162678
v -0.033345 1.869924 -0.227141
v 0.098614 1.869924 -0.157582
v 0.161678 1.869924 -0.006625
v 0.004687 1.979034 0.194203
v -0.018137 1.979034 0.188348
v -0.044172 1.979034 0.150574
v 0.063605 1.979034 0.136360
v 0.046885 1.979034 0.181907
v -0.026964 1.950812 -0.227267
v -0.091949 1.950812 -0.175361
v -0.142984 1.950812 -0.124089
v 0.064590 2.053816 0.176775
v -0.138754 1.950812 -0.014255
v 0.079290 1.950812 -0.171258
v 0.130070 1.950812 -0.049707
v -0.049067 1.950812 -0.026082
v 0.098144 2.009198 -0.188726
v 0.138342 2.009198 -0.092505
v -0.003465 2.009198 -0.073803
v 0.126785 2.054035 -0.181405
v 0.147859 2.054035 -0.130959
v 0.073514 2.054035 -0.121155
v -0.088298 2.009793 -0.077931
v -0.152740 2.009793 -0.069432
v -0.072416 2.009793 -0.222486
v 0.003930 2.009793 -0.182243
v -0.119109 2.009793 -0.185191
v -0.155779 2.009793 -0.148351
v -0.113154 2.051003 -0.102595
v -0.152886 2.051003 -0.097355
v -0.103362 2.051003 -0.191722
v -0.056290 2.051003 -0.166909
v -0.132151 2.051003 -0.168727
v -0.154760 2.051003 -0.146013
v 0.140433 2.081854 -0.148305
v -0.140250 2.098156 -0.123065
v -0.266582 1.800470 -0.153984
v -0.225371 1.773578 -0.263774
v 0.140723 1.856895 -0.281691
v -0.305024 1.767036 -0.217543
v -0.196753 1.806205 -0.194513
v 0.243916 1.837849 0.105848
v 0.275583 1.778826 0.220681
v -0.254740 1.914407 -0.282346
v 0.303712 1.811072 0.104113
v 0.219256 1.809579 0.208040
v -0.158552 1.815294 0.278059
v -0.292258 1.783292 0.167063
v 0.260617 1.888558 0.159670
v -0.215042 1.751547 0.308096
v -0.226245 1.843124 0.154420
v -0.250284 1.928767 0.226909
vt 0.077418 0.981935
vt 0.205899 0.908517
vt 0.205899 0.981935
vt 0.077418 0.835099
vt 0.205899 0.835099
vt 0.205899 0.761680
vt 0.077418 0.761680
vt 0.205899 0.688262
vt 0.077418 0.688262
vt 0.205899 0.614844
vt 0.077418 0.541426
vt 0.077418 0.468008
vt 0.077418 0.468008
vt 0.077418 0.614844
vt 0.205899 0.541426
vt 0.205899 0.468008
vt 0.334381 0.835099
vt 0.334381 0.761680
vt 0.334381 0.835099
vt 0.334381 0.468008
vt 0.334381 0.541426
vt 0.334381 0.614844
vt 0.334381 0.688262
vt 0.334381 0.761680
vt 0.334381 0.908517
vt 0.334381 0.981935
vt 0.904080 0.362464
vt 0.944094 0.187152
vt 0.540042 0.187152
vt 0.334381 0.541426
vt 0.334381 0.614844
vt 0.334381 0.688262
vt 0.334381 0.908517
vt 0.334381 0.981935
vt 0.077418 0.688262
vt 0.077418 0.614844
vt 0.077418 0.614844
vt 0.077418 0.908517
vt 0.077418 0.835099
vt 0.077418 0.908517
vt 0.077418 0.761680
vt 0.077418 0.541426
vt 0.077418 0.908517
vt 0.077418 0.835099
vt 0.077418 0.835099
vt 0.077418 0.761680
vt 0.077418 0.981935
vt 0.077418 0.541426
vt 0.077418 0.688262
vt 0.077418 0.468008
vt 0.310356 0.440485
vt 0.310535 0.321850
vt 0.373011 0.288917
vt 0.077418 0.541426
vt 0.077418 0.468008
vt 0.077418 0.614844
vt 0.077418 0.761680
vt 0.077418 0.981935
vt 0.077418 0.908517
vt 0.077418 0.688262
vt 0.599584 0.555095
vt 0.543705 0.619825
vt 0.532409 0.578754
vt 0.282986 0.141202
vt 0.244804 0.196601
vt 0.108329 0.187152
vt 0.478185 0.527946
vt 0.467319 0.581512
vt 0.629867 0.601792
vt 0.681626 0.538046
vt 0.676964 0.620677
vt 0.463519 0.924034
vt 0.505930 0.882636
vt 0.491548 0.929711
vt 0.573553 0.498733
vt 0.561529 0.511299
vt 0.624637 0.638072
vt 0.668664 0.678251
vt 0.523706 0.936767
vt 0.556965 0.893834
vt 0.519199 0.526208
vt 0.574507 0.475926
vt 0.618667 0.535151
vt 0.631849 0.514223
vt 0.632805 0.549724
vt 0.674763 0.847350
vt 0.705651 0.804038
vt 0.715553 0.836301
vt 0.624637 0.746478
vt 0.663468 0.810548
vt 0.628354 0.814447
vt 0.680110 0.481707
vt 0.726919 0.537724
vt 0.472309 0.622851
vt 0.721805 0.628362
vt 0.461448 0.873626
vt 0.515925 0.838533
vt 0.638652 0.847998
vt 0.712700 0.691515
vt 0.571905 0.850816
vt 0.521028 0.798859
vt 0.496585 0.769479
vt 0.528099 0.775862
vt 0.659390 0.735993
vt 0.703978 0.717834
vt 0.702076 0.738677
vt 0.570104 0.809627
vt 0.792377 0.878761
vt 0.769958 0.925329
vt 0.772297 0.882103
vt 0.906475 0.973424
vt 0.875037 0.948239
vt 0.906475 0.903327
vt 0.491427 0.652092
vt 0.767126 0.548021
vt 0.762643 0.627481
vt 0.749274 0.942916
vt 0.752065 0.918665
vt 0.769958 0.932943
vt 0.835532 0.717531
vt 0.899300 0.722267
vt 0.902871 0.774347
vt 0.754971 0.830699
vt 0.746660 0.865420
vt 0.729191 0.757410
vt 0.731258 0.795205
vt 0.736984 0.813861
vt 0.796507 0.720249
vt 0.912961 0.818503
vt 0.743358 0.736624
vt 0.889482 0.615850
vt 0.856023 0.606582
vt 0.856023 0.541780
vt 0.571905 0.763760
vt 0.616727 0.809630
vt 0.591247 0.831515
vt 0.564255 0.783795
vt 0.478253 0.790195
vt 0.465342 0.768357
vt 0.919639 0.475926
vt 0.889482 0.495079
vt 0.591247 0.693799
vt 0.602477 0.759712
vt 0.871603 0.698898
vt 0.912961 0.697072
vt 0.938820 0.970517
vt 0.910123 0.930614
vt 0.923427 0.930614
vt 0.776238 0.792791
vt 0.773033 0.769572
vt 0.773883 0.785117
vt 0.880397 0.639850
vt 0.908118 0.660682
vt 0.880397 0.679452
vt 0.517416 0.744743
vt 0.542792 0.749883
vt 0.921635 0.903327
vt 0.796507 0.759840
vt 0.783637 0.799716
vt 0.875037 0.916985
vt 0.844405 0.883023
vt 0.873060 0.877105
vt 0.813547 0.567091
vt 0.828069 0.530065
vt 0.845997 0.835837
vt 0.875037 0.818503
vt 0.571905 0.756271
vt 0.624637 0.902898
vt 0.666166 0.898037
vt 0.634488 0.917473
vt 0.895635 0.897054
vt 0.910203 0.874709
vt 0.910203 0.903327
vt 0.875037 0.887459
vt 0.895635 0.842468
vt 0.830675 0.560142
vt 0.823872 0.848388
vt 0.605047 0.883211
vt 0.616509 0.864862
vt 0.621268 0.883211
vt 0.830675 0.611440
vt 0.810393 0.589627
vt 0.822612 0.885742
vt 0.806654 0.859508
vt 0.801459 0.545160
vt 0.810413 0.522331
vt 0.856023 0.509336
vt 0.828069 0.506754
vt 0.542515 0.727095
vt 0.571905 0.900326
vt 0.599022 0.895275
vt 0.605047 0.927818
vt 0.662868 0.923650
vt 0.640107 0.937615
vt 0.563434 0.731685
vt 0.649558 0.946206
vt 0.663591 0.937596
vt 0.666166 0.949629
vt 0.524282 0.723402
vt 0.538273 0.711429
vt 0.575209 0.875522
vt 0.599723 0.868554
vt 0.551171 0.714260
vt 0.810413 0.507958
vt 0.528765 0.693799
vt 0.791460 0.513653
vt 0.527032 0.709152
vt 0.585040 0.856375
vt 0.605047 0.831515
vt 0.805993 0.879092
vt 0.796507 0.865888
vt 0.810393 0.616521
vt 0.798559 0.614662
vt 0.468650 0.661221
vt 0.440777 0.659267
vt 0.725256 0.475926
vt 0.791460 0.513370
vt 0.816663 0.916985
vt 0.832233 0.977941
vt 0.796507 0.977941
vt 0.853095 0.641895
vt 0.880397 0.639850
vt 0.880397 0.692447
vt 0.739304 0.878761
vt 0.731839 0.914555
vt 0.467133 0.828651
vt 0.516507 0.800595
vt 0.750755 0.697072
vt 0.435847 0.693799
vt 0.484494 0.795240
vt 0.523802 0.749286
vt 0.853095 0.689203
vt 0.823774 0.689203
vt 0.834564 0.639850
vt 0.766735 0.662224
vt 0.791460 0.677105
vt 0.698770 0.911051
vt 0.666166 0.928516
vt 0.683869 0.878761
vt 0.698770 0.964143
vt 0.686773 0.939830
vt 0.719485 0.854415
vt 0.698248 0.878761
vt 0.605047 0.864862
vt 0.607943 0.831515
vt 0.622479 0.864862
vt 0.688639 0.700111
vt 0.733821 0.697072
vt 0.675943 0.964618
vt 0.823774 0.639850
vt 0.823774 0.690703
vt 0.791460 0.674873
vt 0.698770 0.904466
vt 0.731839 0.924845
vt 0.703348 0.926379
vt 0.617390 0.593873
vt 0.571841 0.659022
vt 0.703103 0.963339
vt 0.624637 0.633289
vt 0.607521 0.693799
vt 0.769302 0.878761
vt 0.580055 0.362464
vt 0.742068 0.440485
vt 0.831978 0.046563
vt 0.652158 0.046563
vt 0.334381 0.468008
vt 0.077418 0.981935
vt 0.512382 0.187152
vt 0.472368 0.362464
vt 0.402869 0.217447
vt 0.148343 0.362464
vt 0.242316 0.261182
vt 0.272325 0.291330
vt 0.400266 0.046563
vt 0.378348 0.150648
vt 0.220446 0.046563
vt 0.316461 0.132614
vt 0.620181 0.498957
vt 0.792377 0.943542
vt 0.554018 0.649440
vt 0.726576 0.702731
vt 0.435847 0.788672
vt 0.919639 0.639850
vt 0.616727 0.708169
vt 0.906474 0.970517
vt 0.908118 0.644394
vt 0.845997 0.915135
vt 0.835812 0.593310
vt 0.663978 0.878761
vt 0.875037 0.818503
vt 0.769958 0.895806
vt 0.681671 0.960281
vt 0.731839 0.878761
vn 0.4331 -0.0597 -0.8994
vn 0.9732 -0.0597 -0.2221
vn 0.7804 -0.0597 0.6224
vn 0.0000 -0.0597 0.9982
vn -0.7804 -0.0597 0.6224
vn -0.4250 -0.2018 -0.8824
vn -0.9732 -0.0597 -0.2221
vn -0.4331 -0.0597 -0.8994
vn 0.1421 -0.0355 -0.9892
vn -0.4311 -0.1136 -0.8951
vn -0.9686 -0.1136 -0.2211
vn -0.7768 -0.1136 0.6195
vn 0.0000 -0.1136 0.9935
vn 0.7768 -0.1136 0.6195
vn 0.9686 -0.1136 -0.2211
vn 0.4311 -0.1136 -0.8951
vn 0.0000 0.0000 1.0000
vn 0.9487 0.3162 0.0000
vn -0.3995 -0.3903 -0.8295
vn 0.0000 1.0000 0.0000
vn -0.7198 -0.3903 0.5740
vn 0.9844 0.0750 0.1594
vn -0.7546 -0.2618 0.6017
vn 0.9549 -0.2018 -0.2179
vn -0.7657 -0.2018 0.6107
vn 0.4250 -0.2018 -0.8824
vn 0.7657 -0.2018 0.6107
vn -0.9549 -0.2018 -0.2179
vn 0.0000 -0.2018 0.9794
vn 0.6588 -0.7371 -0.1504
vn 0.7546 -0.2618 0.6017
vn 0.4187 -0.2618 -0.8695
vn -0.9409 -0.2618 -0.2148
vn 0.0000 -0.2618 0.9651
vn 0.9409 -0.2618 -0.2148
vn -0.4187 -0.2618 -0.8695
vn -0.0044 1.0000 0.0083
vn -0.2932 -0.7371 -0.6088
vn -0.5283 -0.7371 0.4213
vn 0.5283 -0.7371 0.4213
vn 0.2932 -0.7371 -0.6088
vn -0.6588 -0.7371 -0.1504
vn 0.0000 -0.7371 0.6758
vn -0.8100 -0.1795 0.5583
vn 0.0072 1.0000 -0.0050
vn -0.8525 -0.5216 0.0328
vn 0.7613 -0.5650 -0.3181
vn -0.5948 -0.5438 -0.5920
vn -0.1942 -0.6239 0.7570
vn 0.7465 -0.6064 0.2740
vn -0.5209 -0.5507 -0.6522
vn -0.6906 -0.5446 0.4760
vn 0.2180 -0.6267 0.7481
vn 0.3793 -0.5817 -0.7196
vn -0.2409 0.2455 0.9390
vn 0.2726 -0.2253 0.9354
vn 0.4594 -0.1715 -0.8715
vn -0.9863 -0.1607 0.0380
vn 0.9089 -0.1726 -0.3797
vn -0.6999 -0.1571 -0.6967
vn -0.2422 -0.2238 0.9441
vn 0.9189 -0.2047 0.3373
vn -0.6162 -0.1588 -0.7714
vn -0.6413 0.4258 -0.6383
vn 0.1432 0.2260 0.9635
vn -0.5962 0.2954 -0.7465
vn 0.3532 0.9354 0.0172
vn 0.2710 0.2476 0.9302
vn -0.1766 0.3565 -0.9175
vn -0.9719 0.2326 0.0374
vn 0.8856 0.2806 -0.3700
vn -0.0371 0.9963 0.0771
vn -0.1245 0.3053 -0.9441
vn -0.5925 0.6944 0.4083
vn 0.2391 0.5190 0.8207
vn -0.2034 0.5743 0.7930
vn -0.1041 0.6051 -0.7893
vn 0.6363 0.7352 0.2336
vn 0.1131 0.5012 0.8579
vn 0.7438 0.5918 -0.3107
vn -0.5666 0.4193 -0.7093
vn -0.8256 0.5634 0.0318
vn 0.1121 0.5145 0.8501
vn 0.4071 0.4875 -0.7724
vn -0.1152 0.4734 -0.8733
vn 0.8536 0.4161 0.3134
vn -0.2383 0.2838 0.9288
vn 0.2710 0.2481 0.9301
vn -0.7626 0.3771 0.5256
vn -0.7063 0.0828 -0.7030
vn 0.9208 -0.1948 0.3380
vn -0.2287 0.3910 0.8915
vn 0.2798 -0.0003 0.9601
vn -0.5826 0.7066 0.4015
vn 0.4660 -0.0381 -0.8840
vn 0.5088 0.7339 0.4499
vn 0.9118 0.1534 -0.3809
vn -0.6234 0.0480 -0.7805
vn -0.9155 0.4008 0.0353
vn -0.6462 0.5060 -0.5713
vn -0.7485 0.0437 -0.6617
vn 0.1067 0.5779 0.8091
vn 0.8528 -0.3820 -0.3563
vn -0.4902 0.7562 -0.4334
vn 0.1010 0.6352 0.7657
vn 0.8165 -0.4658 -0.3411
vn 0.5713 0.6469 0.5051
vn 0.0944 0.6920 0.7157
vn -0.6478 -0.4058 -0.6448
vn 0.4282 0.3958 -0.8124
vn -0.9797 -0.1970 0.0377
vn -0.5759 -0.3854 -0.7210
vn -0.9600 0.2774 0.0370
vn -0.7076 0.0575 -0.7043
vn 0.3280 0.7108 -0.6222
vn -0.9990 0.0225 0.0385
vn -0.6200 0.1139 -0.7763
vn 0.1085 0.5579 0.8228
vn -0.5234 0.5447 -0.6553
vn 0.1167 0.4512 0.8848
vn 0.6085 0.5833 0.5380
vn -0.6180 0.4895 -0.6152
vn 0.2414 0.8556 -0.4579
vn 0.9227 0.0060 -0.3855
vn 0.1095 0.5468 0.8301
vn -0.8687 0.0654 0.4910
vn 0.4490 -0.2701 -0.8518
vn -0.2585 0.8323 0.4903
vn 0.9813 0.1883 0.0390
vn 0.3177 0.6944 0.6457
vn 0.2118 0.2366 -0.9483
vn -0.5356 -0.6550 -0.5331
vn 0.7530 -0.5972 0.2764
vn -0.8567 0.4224 0.2959
vn -0.4775 -0.2120 -0.8527
vn 0.8934 0.1296 -0.4302
vn 0.9087 0.2905 0.2997
vn 0.6961 0.2313 -0.6797
vn -0.6939 0.6736 -0.2547
vn 0.3991 0.0769 0.9137
vn -0.9060 0.4100 -0.1052
vn 0.0742 0.4923 0.8673
vn 0.2735 0.6563 -0.7032
vn 0.8016 0.5010 -0.3261
vn -0.6393 0.6051 -0.4745
vn -0.6533 -0.6087 0.4502
vn -0.5427 0.4487 -0.7101
vn -0.8712 0.0505 0.4883
vn 0.0109 0.4183 0.9083
vn 0.7198 -0.3903 0.5740
vn -0.8976 -0.3903 -0.2049
vn -0.0000 -0.3903 0.9207
vn -0.9844 -0.0750 -0.1594
vn 0.8976 -0.3903 -0.2049
vn -0.7600 -0.3800 -0.5273
vn 0.3995 -0.3903 -0.8295
vn -0.0086 1.0000 0.0020
vn -0.0040 1.0000 0.0082
vn -0.0074 1.0000 0.0031
vn 0.0042 1.0000 0.0088
vn 0.0058 1.0000 0.0058
vn 0.0053 1.0000 0.0066
vn -0.0073 1.0000 -0.0058
vn -0.0073 1.0000 -0.0027
vn 0.0072 1.0000 -0.0057
vn 0.0000 1.0000 -0.0094
vn 0.0021 1.0000 -0.0081
vn 0.0092 1.0000 0.0021
vn 0.0081 1.0000 -0.0003
vn -0.0023 1.0000 -0.0078
vn 0.7613 -0.5650 -0.3180
vn -0.0660 0.2735 0.9596
vn 0.5954 0.6907 -0.4104
vn 0.1275 0.9837 0.1269
vn 0.8528 -0.3820 -0.3562
vn -0.8100 0.0965 0.5785
vn 0.8027 0.3383 -0.4911
vn -0.2606 -0.7863 -0.5602
vn 0.9352 -0.3274 0.1351
vn 0.3505 0.8129 -0.4650
vn -0.1603 0.9606 0.2271
vn 0.5768 0.1275 0.8069
vn -0.7437 0.1481 -0.6519
vn -0.5745 -0.8077 0.1328
s off
f 2/1/1 16/2/1 15/3/1
f 16/2/2 6/4/2 17/5/2
f 6/4/3 18/6/3 17/5/3
f 8/7/4 19/8/4 18/6/4
f 10/9/5 20/10/5 19/8/5
f 14/11/6 30/12/6 2/13/6
f 12/14/7 21/15/7 20/10/7
f 14/11/8 15/16/8 21/15/8
f 5/17/9 25/18/9 24/19/9
f 21/15/10 1/20/10 13/21/10
f 20/10/11 13/21/11 11/22/11
f 19/8/12 11/22/12 9/23/12
f 7/24/13 19/8/13 9/23/13
f 17/5/14 7/24/14 5/17/14
f 16/2/15 5/17/15 3/25/15
f 15/3/16 3/25/16 1/26/16
f 23/27/17 24/28/17 27/29/17
f 11/22/18 28/30/18 27/31/18
f 7/24/17 26/32/17 25/18/17
f 1/20/19 28/30/19 13/21/19
f 3/25/20 24/19/20 23/33/20
f 11/22/21 26/32/21 9/23/21
f 1/26/22 23/33/22 22/34/22
f 33/35/23 41/36/23 34/37/23
f 4/38/24 31/39/24 6/4/24
f 12/14/25 33/35/25 34/37/25
f 2/1/26 29/40/26 4/38/26
f 6/4/27 32/41/27 8/7/27
f 12/14/28 35/42/28 14/11/28
f 10/9/29 32/41/29 33/35/29
f 36/43/30 45/44/30 38/45/30
f 31/39/31 39/46/31 32/41/31
f 30/47/32 36/43/32 29/40/32
f 35/42/33 41/36/33 42/48/33
f 33/35/34 39/46/34 40/49/34
f 29/40/35 38/45/35 31/39/35
f 30/12/36 42/48/36 37/50/36
f 44/51/37 55/52/37 56/53/37
f 37/50/38 49/54/38 44/55/38
f 40/49/39 48/56/39 41/36/39
f 38/45/40 46/57/40 39/46/40
f 36/43/41 44/58/41 43/59/41
f 42/48/42 48/56/42 49/54/42
f 40/49/43 46/57/43 47/60/43
f 60/61/44 70/62/44 61/63/44
f 51/64/45 52/65/45 48/66/45
f 53/67/46 61/63/46 62/68/46
f 57/69/47 65/70/47 66/71/47
f 53/72/48 63/73/48 54/74/48
f 50/75/49 60/61/49 51/76/49
f 58/77/50 66/71/50 67/78/50
f 55/79/51 63/73/51 64/80/51
f 51/76/52 61/63/52 52/81/52
f 58/82/53 59/83/53 50/75/53
f 55/84/54 65/70/54 56/85/54
f 69/86/55 77/87/55 78/88/55
f 67/89/56 68/90/56 59/91/56
f 64/92/57 74/93/57 65/70/57
f 61/63/58 71/94/58 62/68/58
f 66/71/59 74/93/59 75/95/59
f 62/96/60 72/97/60 63/73/60
f 59/91/61 69/86/61 60/98/61
f 67/78/62 75/95/62 76/99/62
f 64/80/63 72/97/63 73/100/63
f 81/101/64 92/102/64 93/103/64
f 76/104/65 139/105/65 85/106/65
f 72/97/66 82/107/66 73/100/66
f 78/108/67 144/109/67 140/110/67
f 68/90/68 85/106/68 77/87/68
f 73/111/69 82/112/69 132/113/69
f 70/62/70 80/114/70 71/94/70
f 75/95/71 83/115/71 84/116/71
f 80/117/72 134/118/72 130/119/72
f 88/120/73 100/121/73 89/122/73
f 78/88/74 88/123/74 79/124/74
f 77/87/75 90/125/75 86/126/75
f 77/87/76 87/127/76 78/88/76
f 79/128/77 89/122/77 84/129/77
f 85/106/78 89/130/78 90/125/78
f 96/131/79 108/132/79 109/133/79
f 83/134/80 96/135/80 84/136/80
f 81/101/81 94/137/81 82/107/81
f 80/138/82 91/139/82 92/102/82
f 79/140/83 96/131/83 91/141/83
f 82/142/84 95/143/84 83/134/84
f 100/121/85 99/144/85 105/145/85
f 90/146/86 100/147/86 101/148/86
f 86/126/87 98/149/87 87/127/87
f 86/126/88 101/150/88 97/151/88
f 87/152/89 99/153/89 88/154/89
f 93/103/90 104/155/90 103/156/90
f 101/148/91 100/147/91 105/157/91
f 98/149/92 97/151/92 105/158/92
f 97/151/93 101/150/93 105/158/93
f 99/159/94 98/149/94 105/158/94
f 94/160/95 107/161/95 95/162/95
f 109/133/96 119/163/96 116/164/96
f 95/162/97 108/165/97 96/166/97
f 94/137/98 103/156/98 102/167/98
f 92/168/99 106/169/99 104/170/99
f 110/171/100 115/172/100 113/173/100
f 107/174/101 112/175/101 110/171/101
f 108/132/102 112/176/102 109/133/102
f 107/161/103 111/177/103 108/165/103
f 113/178/104 115/179/104 128/180/104
f 111/181/105 115/182/105 112/176/105
f 110/183/106 114/184/106 111/177/106
f 116/164/107 125/185/107 122/186/107
f 106/187/108 116/164/108 117/188/108
f 104/155/109 120/189/109 103/156/109
f 102/190/110 119/191/110 107/192/110
f 104/170/111 117/193/111 121/194/111
f 103/156/112 118/195/112 102/167/112
f 127/196/113 123/197/113 129/198/113
f 121/199/114 126/200/114 120/189/114
f 118/201/115 125/202/115 119/191/115
f 121/194/116 123/197/116 127/196/116
f 120/189/117 124/203/117 118/195/117
f 117/188/118 122/186/118 123/204/118
f 124/203/119 126/200/119 129/205/119
f 123/204/120 122/186/120 129/206/120
f 122/186/121 125/185/121 129/206/121
f 126/200/122 127/207/122 129/205/122
f 125/202/123 124/208/123 129/209/123
f 114/184/124 113/210/124 128/211/124
f 115/182/125 114/212/125 128/213/125
f 71/94/126 130/214/126 133/215/126
f 74/93/127 73/216/127 132/217/127
f 82/218/128 83/219/128 132/220/128
f 83/115/129 74/93/129 132/217/129
f 130/221/130 134/222/130 137/223/130
f 72/224/131 134/118/131 81/225/131
f 71/226/132 131/227/132 72/97/132
f 75/95/133 136/228/133 76/99/133
f 133/215/134 130/214/134 137/229/134
f 131/227/135 133/230/135 137/231/135
f 134/232/136 131/233/136 137/234/136
f 136/228/137 138/235/137 142/236/137
f 84/237/138 138/238/138 75/239/138
f 85/240/139 135/241/139 84/237/139
f 69/86/140 140/242/140 143/243/140
f 135/244/141 139/245/141 142/246/141
f 139/105/142 136/247/142 142/248/142
f 138/238/143 135/241/143 142/249/143
f 140/250/144 144/251/144 145/252/144
f 79/253/145 141/254/145 144/255/145
f 69/256/146 141/257/146 70/62/146
f 144/255/147 141/254/147 145/258/147
f 141/257/148 143/259/148 145/260/148
f 143/243/149 140/242/149 145/261/149
f 2/1/1 4/38/1 16/2/1
f 16/2/2 4/38/2 6/4/2
f 6/4/3 8/7/3 18/6/3
f 8/7/4 10/9/4 19/8/4
f 10/9/5 12/14/5 20/10/5
f 14/11/6 35/42/6 30/12/6
f 12/14/7 14/11/7 21/15/7
f 14/11/8 2/13/8 15/16/8
f 5/17/150 7/24/150 25/18/150
f 21/15/10 15/16/10 1/20/10
f 20/10/11 21/15/11 13/21/11
f 19/8/12 20/10/12 11/22/12
f 7/24/13 18/6/13 19/8/13
f 17/5/14 18/6/14 7/24/14
f 16/2/15 17/5/15 5/17/15
f 15/3/16 16/2/16 3/25/16
f 28/262/17 22/263/17 23/27/17
f 25/264/17 26/265/17 27/29/17
f 27/29/17 28/262/17 23/27/17
f 24/28/17 25/264/17 27/29/17
f 11/22/151 13/21/151 28/30/151
f 7/24/152 9/23/152 26/32/152
f 1/20/153 22/266/153 28/30/153
f 3/25/154 5/17/154 24/19/154
f 11/22/155 27/31/155 26/32/155
f 1/26/156 3/25/156 23/33/156
f 33/35/23 40/49/23 41/36/23
f 4/38/24 29/40/24 31/39/24
f 12/14/25 10/9/25 33/35/25
f 2/1/26 30/47/26 29/40/26
f 6/4/27 31/39/27 32/41/27
f 12/14/28 34/37/28 35/42/28
f 10/9/29 8/7/29 32/41/29
f 36/43/30 43/59/30 45/44/30
f 31/39/31 38/45/31 39/46/31
f 30/47/32 37/267/32 36/43/32
f 35/42/33 34/37/33 41/36/33
f 33/35/34 32/41/34 39/46/34
f 29/40/35 36/43/35 38/45/35
f 30/12/36 35/42/36 42/48/36
f 45/268/157 43/269/157 57/270/157
f 43/269/158 44/51/158 56/53/158
f 57/270/159 43/269/159 56/53/159
f 44/51/160 49/271/160 55/52/160
f 49/271/161 53/272/161 54/273/161
f 49/271/162 54/273/162 55/52/162
f 37/50/38 42/48/38 49/54/38
f 40/49/39 47/60/39 48/56/39
f 38/45/40 45/44/40 46/57/40
f 36/43/41 37/267/41 44/58/41
f 42/48/42 41/36/42 48/56/42
f 40/49/43 39/46/43 46/57/43
f 60/61/44 69/256/44 70/62/44
f 46/274/163 45/268/163 58/275/163
f 45/268/164 57/270/164 58/275/164
f 48/66/165 47/276/165 51/64/165
f 47/276/166 46/274/166 50/277/166
f 51/64/167 47/276/167 50/277/167
f 53/272/168 49/271/168 48/66/168
f 52/65/169 53/272/169 48/66/169
f 46/274/170 58/275/170 50/277/170
f 53/67/46 52/81/46 61/63/46
f 57/69/171 56/85/171 65/70/171
f 53/72/48 62/96/48 63/73/48
f 50/75/49 59/83/49 60/61/49
f 58/77/50 57/69/50 66/71/50
f 55/79/51 54/74/51 63/73/51
f 51/76/52 60/61/52 61/63/52
f 58/82/53 67/278/53 59/83/53
f 55/84/54 64/92/54 65/70/54
f 69/86/55 68/90/55 77/87/55
f 67/89/56 76/104/56 68/90/56
f 64/92/57 73/216/57 74/93/57
f 61/63/58 70/62/58 71/94/58
f 66/71/59 65/70/59 74/93/59
f 62/96/60 71/226/60 72/97/60
f 59/91/61 68/90/61 69/86/61
f 67/78/62 66/71/62 75/95/62
f 64/80/63 63/73/63 72/97/63
f 81/101/64 80/138/64 92/102/64
f 76/104/172 136/247/172 139/105/172
f 72/97/66 81/101/66 82/107/66
f 78/108/173 79/279/173 144/109/173
f 68/90/68 76/104/68 85/106/68
f 70/62/70 79/280/70 80/114/70
f 75/95/71 74/93/71 83/115/71
f 80/117/174 81/225/174 134/118/174
f 88/120/73 99/144/73 100/121/73
f 78/88/74 87/127/74 88/123/74
f 77/87/75 85/106/75 90/125/75
f 77/87/76 86/126/76 87/127/76
f 79/128/77 88/120/77 89/122/77
f 85/106/78 84/281/78 89/130/78
f 106/187/79 91/141/79 109/133/79
f 91/141/79 96/131/79 109/133/79
f 83/134/80 95/143/80 96/135/80
f 81/101/81 93/103/81 94/137/81
f 80/138/82 79/282/82 91/139/82
f 79/140/83 84/283/83 96/131/83
f 82/142/84 94/284/84 95/143/84
f 90/146/86 89/285/86 100/147/86
f 86/126/87 97/151/87 98/149/87
f 86/126/88 90/125/88 101/150/88
f 87/152/89 98/286/89 99/153/89
f 93/103/90 92/102/90 104/155/90
f 94/160/95 102/287/95 107/161/95
f 109/133/96 107/288/96 119/163/96
f 95/162/97 107/161/97 108/165/97
f 94/137/98 93/103/98 103/156/98
f 92/168/99 91/289/99 106/169/99
f 110/171/100 112/175/100 115/172/100
f 107/174/101 109/290/101 112/175/101
f 108/132/102 111/181/102 112/176/102
f 107/161/175 110/183/175 111/177/175
f 111/181/105 114/212/105 115/182/105
f 110/183/106 113/210/106 114/184/106
f 116/164/107 119/163/107 125/185/107
f 106/187/108 109/133/108 116/164/108
f 104/155/109 121/199/109 120/189/109
f 102/190/110 118/201/110 119/191/110
f 104/170/111 106/169/111 117/193/111
f 103/156/112 120/189/112 118/195/112
f 121/199/114 127/207/114 126/200/114
f 118/201/115 124/208/115 125/202/115
f 121/194/116 117/193/116 123/197/116
f 120/189/117 126/200/117 124/203/117
f 117/188/118 116/164/118 122/186/118
f 71/94/176 80/114/176 130/214/176
f 72/224/177 131/291/177 134/118/177
f 71/226/178 133/230/178 131/227/178
f 75/95/179 138/235/179 136/228/179
f 84/237/180 135/241/180 138/238/180
f 85/240/181 139/292/181 135/241/181
f 69/86/182 78/88/182 140/242/182
f 79/253/183 70/293/183 141/254/183
f 69/256/184 143/259/184 141/257/184
