# Blender v2.91.0 OBJ File: 'room stuff.blend'
# www.blender.org
o Cube
v -2.151869 -0.500000 -3.545641
v -2.151869 -0.500000 11.454359
v -17.151869 -0.500000 -3.545641
v -17.151869 -0.500000 11.454359
v -17.151869 9.255068 -2.795641
v -2.151869 0.500000 -2.795641
v -17.151869 0.500000 -2.795641
v -2.151869 9.255068 10.741859
v -17.151869 9.255068 11.454359
v -2.151869 0.500000 10.741859
v -17.151869 0.500000 10.741859
v -2.151869 9.255068 11.454359
v -17.151869 9.255068 -3.545641
v -2.151869 9.255068 -3.545641
v -2.151869 9.255068 -2.795641
v -17.151869 9.255068 10.741859
vt 0.625000 0.512500
vt 0.875000 0.512500
vt 0.875000 0.512500
vt 0.625000 0.250000
vt 0.375000 0.500000
vt 0.375000 0.250000
vt 0.875000 0.738125
vt 0.625000 0.750000
vt 0.625000 0.738125
vt 0.125000 0.750000
vt 0.125000 0.500000
vt 0.625000 0.738125
vt 0.375000 0.750000
vt 0.875000 0.500000
vt 0.625000 0.512500
vt 0.625000 0.500000
vt 0.625000 0.237500
vt 0.375000 0.000000
vt 0.875000 0.738125
vt 0.375000 1.000000
vt 0.875000 0.750000
vt 0.625000 0.237500
vt 0.625000 0.000000
vt 0.625000 0.011875
vt 0.625000 0.011875
vt 0.625000 1.000000
vn 0.0000 0.0000 1.0000
vn 0.0000 0.0000 -1.0000
vn 0.0000 1.0000 0.0000
vn 0.0000 -1.0000 0.0000
vn 1.0000 -0.0000 0.0000
vn -1.0000 0.0000 0.0000
s off
f 6/1/1 5/2/1 7/3/1
f 13/4/2 1/5/2 3/6/2
f 16/7/3 12/8/3 8/9/3
f 1/5/4 4/10/4 3/11/4
f 6/1/5 10/12/5 2/13/5
f 13/14/3 15/15/3 14/16/3
f 7/17/6 3/6/6 4/18/6
f 7/3/3 10/12/3 6/1/3
f 11/19/2 8/9/2 10/12/2
f 12/8/1 4/20/1 2/13/1
f 6/1/1 15/15/1 5/2/1
f 13/4/2 14/16/2 1/5/2
f 16/7/3 9/21/3 12/8/3
f 1/5/4 2/13/4 4/10/4
f 10/12/5 8/9/5 12/8/5
f 1/5/5 14/16/5 6/1/5
f 14/16/5 15/15/5 6/1/5
f 10/12/5 12/8/5 2/13/5
f 1/5/5 6/1/5 2/13/5
f 13/14/3 5/2/3 15/15/3
f 7/17/6 5/22/6 13/4/6
f 4/18/6 9/23/6 11/24/6
f 9/23/6 16/25/6 11/24/6
f 7/17/6 13/4/6 3/6/6
f 4/18/6 11/24/6 7/17/6
f 7/3/3 11/19/3 10/12/3
f 11/19/2 16/7/2 8/9/2
f 12/8/1 9/26/1 4/20/1
