# Blender v2.91.0 OBJ File: 'pillar broken.blend'
# www.blender.org
o Cylinder
v -0.537003 2.504168 -1.441977
v -0.076921 1.144616 -1.318699
v -0.537003 1.144616 -1.441978
v -0.076921 2.504168 -1.318698
v 0.259883 1.144616 -0.981896
v 0.259883 2.504168 -0.981895
v 0.383162 1.144616 -0.521814
v 0.383162 2.504168 -0.521813
v 0.259883 1.144616 -0.061732
v 0.259883 2.504168 -0.061731
v -0.076921 1.144616 0.275071
v -0.076921 2.504168 0.275072
v -0.537003 1.144616 0.398349
v -0.537003 2.504168 0.398350
v -0.997085 1.144616 0.275071
v -0.997085 2.504168 0.275072
v -1.333887 1.144616 -0.061732
v -1.333887 2.504168 -0.061731
v -1.457168 1.144616 -0.521814
v -1.457168 2.504168 -0.521813
v -1.333888 1.144616 -0.981896
v -1.333888 2.504168 -0.981895
v -0.997085 1.144616 -1.318699
v -0.997085 2.504168 -1.318698
v 1.021957 0.499999 -0.521814
v -1.316483 0.499999 0.828285
v -1.316483 0.499999 -1.871913
v 0.320893 1.084580 -1.017120
v -0.041697 1.084580 -1.379710
v -1.414626 1.018923 -1.028509
v -1.037538 0.960549 -1.388765
v -1.403954 0.960549 -1.022348
v -1.550394 1.018923 -0.521814
v -1.538072 0.960549 -0.521814
v -1.403954 0.960549 -0.021280
v -1.037537 0.960549 0.345136
v -1.414625 1.018923 -0.015118
v -0.537003 0.960549 0.479254
v -1.043698 1.018923 0.355808
v -0.036469 0.960549 0.345136
v -0.537003 1.018923 0.491577
v 0.329947 0.960549 -0.021280
v -0.030307 1.018923 0.355808
v 0.476389 1.018923 -0.521814
v 0.464066 0.960549 -0.521814
v 0.340620 1.018923 -1.028510
v 0.329948 0.960549 -1.022348
v -0.030307 1.018923 -1.399436
v -0.036469 0.960549 -1.388765
v -1.043699 1.018923 -1.399436
v -0.537003 0.960549 -1.522883
v -0.537003 0.499999 -2.080775
v 0.124201 0.780910 -1.667052
v 0.242477 0.499999 -1.871913
v 0.608236 0.780910 -1.183018
v 0.813097 0.499999 -1.301294
v 0.785404 0.780910 -0.521814
v 0.813097 0.499999 0.257666
v 0.608234 0.780910 0.139390
v 0.242477 0.499999 0.828285
v 0.124201 0.780910 0.623423
v -0.537003 0.499999 1.037146
v -0.537003 0.780910 0.800592
v -1.198206 0.780910 0.623423
v -1.887102 0.499999 0.257666
v -1.682240 0.780910 0.139390
v -2.095963 0.499999 -0.521813
v -1.682240 0.780910 -1.183017
v -1.887102 0.499999 -1.301294
v -1.198207 0.780910 -1.667052
v -0.537003 0.780910 -1.844219
v -0.537003 1.084580 -1.512427
v -1.032310 1.084580 -1.379710
v 0.453609 1.084580 -0.521814
v 0.320893 1.084580 -0.026508
v -0.041697 1.084580 0.336082
v -0.537003 1.084580 0.468798
v -1.032309 1.084580 0.336082
v -1.394897 1.084580 -0.026508
v -1.527615 1.084580 -0.521814
v -1.859409 0.780910 -0.521814
v -1.394898 1.084580 -1.017120
v -0.537003 1.018923 -1.535206
v 0.340620 1.018923 -0.015118
v 0.318240 5.719894 -0.279522
v 0.259883 5.811804 -0.061731
v -1.142002 5.983079 -1.173780
v -0.537003 6.024742 -1.441976
v 0.259883 5.770166 -0.981895
v -0.076921 5.813060 0.275072
v -0.291883 5.757432 -1.376297
v 0.318694 5.697404 -0.762410
v -1.404931 6.023095 -0.326867
v -0.076921 5.874069 -1.318698
v -0.322298 5.760864 0.340821
v -1.333888 6.023080 -0.981894
v 0.383162 5.617643 -0.521813
v -0.823699 6.309244 0.321530
v 0.114274 5.970539 -1.127504
v -0.997085 6.147754 -1.318698
v -1.189085 5.985163 0.083072
v -1.385977 6.030404 -0.787499
v -1.333888 5.999537 -0.061731
v -0.997085 6.216403 0.275072
v 0.072541 5.900687 0.125610
v -0.537003 5.994608 0.398351
v -1.457168 6.040416 -0.521813
v -0.826166 6.341992 -1.364495
vt 1.000000 1.000000
vt 0.916667 0.605910
vt 1.000000 0.605910
vt 0.916667 1.000000
vt 0.833333 0.605910
vt 0.833333 1.000000
vt 0.750000 0.605910
vt 0.750000 1.000000
vt 0.666667 0.605910
vt 0.666667 1.000000
vt 0.583333 0.605910
vt 0.583333 1.000000
vt 0.500000 0.605910
vt 0.500000 1.000000
vt 0.416667 0.605910
vt 0.416667 1.000000
vt 0.333333 0.605910
vt 0.333333 1.000000
vt 0.250000 0.605910
vt 0.250000 1.000000
vt 0.166667 0.605910
vt 0.538889 1.000000
vt 0.166667 1.000000
vt 0.083333 0.605910
vt 0.083333 1.000000
vt 0.000000 0.605910
vt 0.990000 0.250000
vt 0.630000 0.042154
vt 0.630000 0.457846
vt 0.833333 0.593659
vt 0.916667 0.593659
vt 0.166667 0.581168
vt 0.083333 0.570607
vt 0.166667 0.570607
vt 0.250000 0.581168
vt 0.250000 0.570607
vt 0.333333 0.570607
vt 0.416667 0.570607
vt 0.333333 0.581168
vt 0.500000 0.570607
vt 0.416667 0.581168
vt 0.583333 0.570607
vt 0.500000 0.581168
vt 0.666667 0.570607
vt 0.583333 0.581168
vt 0.750000 0.581168
vt 0.750000 0.570607
vt 0.833333 0.581168
vt 0.833333 0.570607
vt 0.916667 0.581168
vt 0.916667 0.570607
vt 0.083333 0.581168
vt 0.000000 0.570607
vt 0.583333 1.000000
vt 0.706115 1.000000
vt 0.000000 1.000000
vt 0.052375 1.000000
vt 0.000000 1.000000
vt 0.955602 1.000000
vt 0.793578 1.000000
vt 0.750000 1.000000
vt 0.119189 1.000000
vt 0.833333 1.000000
vt 0.201877 1.000000
vt 0.285310 1.000000
vt 0.416667 1.000000
vt 0.448072 1.000000
vt 1.000000 0.500000
vt 0.916667 0.552955
vt 0.916667 0.500000
vt 0.833333 0.552955
vt 0.833333 0.500000
vt 0.750000 0.500000
vt 0.750000 0.552955
vt 0.666667 0.500000
vt 0.666667 0.552955
vt 0.583333 0.500000
vt 0.583333 0.552955
vt 0.500000 0.500000
vt 0.500000 0.552955
vt 0.416667 0.500000
vt 0.416667 0.552955
vt 0.333333 0.500000
vt 0.333333 0.552955
vt 0.250000 0.500000
vt 0.166667 0.552955
vt 0.166667 0.500000
vt 0.083333 0.552955
vt 0.083333 0.500000
vt 0.000000 0.500000
vt 1.000000 0.552955
vt 0.000000 0.593659
vt 0.083333 0.593659
vt 0.750000 0.593659
vt 0.666667 0.593659
vt 0.583333 0.593659
vt 0.500000 0.593659
vt 0.416667 0.593659
vt 0.333333 0.593659
vt 0.250000 0.593659
vt 0.250000 0.552955
vt 0.166667 0.593659
vt 0.000000 0.552955
vt 1.000000 0.581168
vt 1.000000 0.570607
vt 1.000000 0.593659
vt 0.666667 0.581168
vt 0.000000 0.581168
vt 0.369161 1.000000
vt 0.333333 1.000000
vt 0.750000 0.490000
vt 0.870000 0.457846
vt 0.957846 0.370000
vt 0.957846 0.130000
vt 0.870000 0.042154
vt 0.750000 0.010000
vt 0.542154 0.130000
vt 0.510000 0.250000
vt 0.542154 0.370000
vt 0.083333 1.000000
vt 1.000000 1.000000
vt 0.166667 1.000000
vt 0.916667 1.000000
vt 0.869361 1.000000
vt 0.250000 1.000000
vt 0.500000 1.000000
vt 0.666667 1.000000
vt 0.620314 1.000000
vn 0.2588 0.0000 -0.9659
vn 0.7071 0.0000 -0.7071
vn 0.9659 0.0000 -0.2588
vn 0.9659 -0.0000 0.2588
vn 0.7071 -0.0000 0.7071
vn 0.2588 -0.0000 0.9659
vn -0.2588 -0.0000 0.9659
vn -0.7071 -0.0000 0.7071
vn -0.9659 -0.0000 0.2588
vn -0.9659 0.0000 -0.2588
vn 0.7552 0.5404 0.3709
vn -0.7071 0.0000 -0.7071
vn -0.2588 0.0000 -0.9659
vn 0.0000 -1.0000 -0.0000
vn 0.4678 0.7499 -0.4678
vn -0.6929 -0.1998 -0.6928
vn -0.6928 -0.1998 -0.6929
vn -0.9465 -0.1998 -0.2536
vn -0.9464 -0.1998 -0.2536
vn -0.9465 -0.1998 0.2536
vn -0.6928 -0.1998 0.6928
vn -0.6928 -0.1998 0.6929
vn -0.2536 -0.1998 0.9465
vn -0.2536 -0.1998 0.9464
vn 0.2536 -0.1998 0.9464
vn 0.6928 -0.1998 0.6928
vn 0.9464 -0.1998 0.2536
vn 0.9465 -0.1998 -0.2536
vn 0.9464 -0.1998 -0.2536
vn 0.6928 -0.1998 -0.6929
vn -0.2536 -0.1998 -0.9465
vn -0.2536 -0.1998 -0.9464
vn 0.7126 -0.0153 0.7014
vn 0.9393 0.2657 -0.2170
vn -0.2589 0.0001 -0.9659
vn -0.0909 -0.0188 -0.9957
vn -0.1067 0.6484 -0.7538
vn 0.9653 -0.0077 -0.2611
vn 0.9920 -0.0336 -0.1213
vn -0.9093 0.4061 -0.0909
vn 0.8041 -0.0306 -0.5938
vn -0.6448 0.4084 0.6461
vn -0.1018 0.4031 0.9095
vn -0.4377 -0.0350 0.8985
vn -0.2590 0.0001 0.9659
vn 0.2008 0.6310 -0.7493
vn 0.5486 0.6310 -0.5486
vn 0.7493 0.6310 -0.2008
vn 0.7493 0.6310 0.2008
vn 0.5486 0.6310 0.5486
vn 0.2008 0.6310 0.7493
vn -0.2008 0.6310 0.7493
vn -0.5486 0.6310 0.5486
vn -0.7493 0.6310 0.2008
vn -0.7493 0.6310 -0.2008
vn -0.5486 0.6310 -0.5486
vn -0.2008 0.6310 -0.7493
vn 0.1296 0.8655 -0.4838
vn -0.1712 0.7499 -0.6390
vn 0.3542 0.8655 -0.3542
vn 0.6390 0.7499 -0.1712
vn 0.4838 0.8655 -0.1296
vn 0.6390 0.7499 0.1712
vn 0.4838 0.8655 0.1296
vn 0.4678 0.7499 0.4678
vn 0.3542 0.8655 0.3542
vn 0.1712 0.7499 0.6390
vn 0.1296 0.8655 0.4838
vn -0.1712 0.7499 0.6390
vn -0.1296 0.8655 0.4838
vn -0.4678 0.7499 0.4678
vn -0.3542 0.8655 0.3542
vn -0.6390 0.7499 0.1712
vn -0.4838 0.8655 0.1296
vn -0.6390 0.7499 -0.1712
vn -0.4838 0.8655 -0.1296
vn -0.4678 0.7499 -0.4678
vn -0.3542 0.8655 -0.3542
vn -0.1296 0.8655 -0.4838
vn 0.2536 -0.1998 -0.9464
vn 0.2536 -0.1998 -0.9465
vn 0.2454 0.3177 -0.9159
vn 0.2454 0.3178 -0.9159
vn 0.6705 0.3177 -0.6705
vn 0.9159 0.3178 -0.2454
vn 0.9159 0.3177 -0.2454
vn 0.9159 0.3177 0.2454
vn 0.9159 0.3178 0.2454
vn 0.6705 0.3178 0.6705
vn 0.6705 0.3177 0.6705
vn 0.2454 0.3177 0.9159
vn -0.2454 0.3177 0.9159
vn -0.2454 0.3178 0.9159
vn -0.6705 0.3178 0.6705
vn -0.6705 0.3177 0.6705
vn -0.9159 0.3178 0.2454
vn -0.9159 0.3178 -0.2454
vn -0.6705 0.3177 -0.6705
vn -0.2454 0.3177 -0.9159
vn 0.1712 0.7499 -0.6390
vn -0.7044 -0.0075 0.7097
vn -0.8169 -0.0310 0.5759
vn -0.5740 -0.0261 -0.8184
vn -0.9024 -0.0217 -0.4304
vn 0.4101 -0.0151 -0.9119
vn -0.2024 0.2749 -0.9399
vn -0.9971 -0.0263 0.0721
vn 0.0973 -0.0596 0.9935
vn 0.2454 0.3178 0.9159
vn -0.2454 0.3178 -0.9159
vn 0.9659 -0.0001 0.2588
vn 0.8767 0.4718 -0.0938
s 1
f 1/1/1 2/2/1 3/3/1
f 4/4/2 5/5/2 2/2/2
f 6/6/3 7/7/3 5/5/3
f 8/8/4 9/9/4 7/7/4
f 10/10/5 11/11/5 9/9/5
f 12/12/6 13/13/6 11/11/6
f 14/14/7 15/15/7 13/13/7
f 16/16/8 17/17/8 15/15/8
f 18/18/9 19/19/9 17/17/9
f 20/20/10 21/21/10 19/19/10
f 95/22/11 14/14/6 12/12/6
f 22/23/12 23/24/12 21/21/12
f 24/25/13 3/26/13 23/24/13
f 25/27/14 26/28/14 27/29/14
f 2/2/15 28/30/15 29/31/15
f 30/32/16 31/33/17 32/34/16
f 33/35/18 32/34/19 34/36/18
f 35/37/20 33/35/20 34/36/20
f 36/38/21 37/39/22 35/37/22
f 38/40/23 39/41/24 36/38/24
f 40/42/25 41/43/25 38/40/25
f 42/44/26 43/45/26 40/42/26
f 44/46/27 42/44/27 45/47/27
f 46/48/28 45/47/29 47/49/28
f 48/50/30 47/49/30 49/51/30
f 50/52/31 51/53/32 31/33/31
f 10/10/5 90/54/33 12/12/5
f 85/55/34 10/10/4 8/8/4
f 1/56/13 108/57/35 88/58/36
f 91/59/37 4/4/1 1/1/1
f 8/8/3 92/60/38 97/61/39
f 87/62/40 24/25/12 22/23/12
f 4/4/2 89/63/41 6/6/2
f 102/64/42 22/23/10 20/20/10
f 93/65/43 20/20/9 18/18/9
f 104/66/44 14/14/7 98/67/45
f 52/68/46 53/69/46 54/70/46
f 54/70/47 55/71/47 56/72/47
f 55/71/48 25/73/48 56/72/48
f 57/74/49 58/75/49 25/73/49
f 59/76/50 60/77/50 58/75/50
f 61/78/51 62/79/51 60/77/51
f 63/80/52 26/81/52 62/79/52
f 64/82/53 65/83/53 26/81/53
f 66/84/54 67/85/54 65/83/54
f 67/85/55 68/86/55 69/87/55
f 69/87/56 70/88/56 27/89/56
f 70/88/57 52/90/57 27/89/57
f 71/91/58 49/51/58 53/69/58
f 23/24/59 72/92/59 73/93/59
f 53/69/60 47/49/60 55/71/60
f 5/5/61 74/94/61 28/30/61
f 47/49/62 57/74/62 55/71/62
f 7/7/63 75/95/63 74/94/63
f 45/47/64 59/76/64 57/74/64
f 9/9/65 76/96/65 75/95/65
f 42/44/66 61/78/66 59/76/66
f 11/11/67 77/97/67 76/96/67
f 40/42/68 63/80/68 61/78/68
f 13/13/69 78/98/69 77/97/69
f 38/40/70 64/82/70 63/80/70
f 15/15/71 79/99/71 78/98/71
f 36/38/72 66/84/72 64/82/72
f 17/17/73 80/100/73 79/99/73
f 66/84/74 34/36/74 81/101/74
f 19/19/75 82/102/75 80/100/75
f 81/101/76 32/34/76 68/86/76
f 82/102/77 23/24/77 73/93/77
f 32/34/78 70/88/78 68/86/78
f 70/88/79 51/53/79 71/103/79
f 83/104/80 49/51/81 51/105/80
f 29/31/82 83/104/82 72/106/83
f 28/30/84 48/50/84 29/31/84
f 74/94/85 46/48/86 28/30/86
f 75/95/87 44/46/88 74/94/88
f 75/95/89 43/45/90 84/107/89
f 77/97/91 43/45/91 76/96/91
f 78/98/92 41/43/92 77/97/93
f 79/99/94 39/41/95 78/98/95
f 80/100/96 37/39/96 79/99/96
f 82/102/97 33/35/97 80/100/97
f 82/102/98 50/52/98 30/32/98
f 73/93/99 83/108/99 50/52/99
f 3/3/100 29/31/100 72/106/100
f 18/18/8 101/109/101 103/110/102
f 1/1/1 4/4/1 2/2/1
f 4/4/2 6/6/2 5/5/2
f 6/6/3 8/8/3 7/7/3
f 8/8/4 10/10/4 9/9/4
f 10/10/5 12/12/5 11/11/5
f 12/12/6 14/14/6 13/13/6
f 14/14/7 16/16/7 15/15/7
f 16/16/8 18/18/8 17/17/8
f 18/18/9 20/20/9 19/19/9
f 20/20/10 22/23/10 21/21/10
f 22/23/12 24/25/12 23/24/12
f 24/25/13 1/56/13 3/26/13
f 27/29/14 52/111/14 54/112/14
f 54/112/14 56/113/14 25/27/14
f 25/27/14 58/114/14 60/115/14
f 60/115/14 62/116/14 25/27/14
f 62/116/14 26/28/14 25/27/14
f 26/28/14 65/117/14 67/118/14
f 67/118/14 69/119/14 27/29/14
f 27/29/14 54/112/14 25/27/14
f 26/28/14 67/118/14 27/29/14
f 2/2/15 5/5/15 28/30/15
f 30/32/16 50/52/17 31/33/17
f 33/35/18 30/32/19 32/34/19
f 35/37/20 37/39/20 33/35/20
f 36/38/21 39/41/21 37/39/22
f 38/40/23 41/43/23 39/41/24
f 40/42/25 43/45/25 41/43/25
f 42/44/26 84/107/26 43/45/26
f 44/46/27 84/107/27 42/44/27
f 46/48/28 44/46/29 45/47/29
f 48/50/30 46/48/30 47/49/30
f 50/52/31 83/108/32 51/53/32
f 8/8/4 97/61/39 85/55/34
f 1/56/13 100/120/103 108/57/35
f 1/1/1 88/121/36 91/59/37
f 6/6/3 92/60/38 8/8/3
f 22/23/12 96/122/104 87/62/40
f 4/4/2 94/123/105 99/124/106
f 20/20/10 107/125/107 102/64/42
f 18/18/9 103/110/102 93/65/43
f 16/16/8 104/66/44 101/109/101
f 14/14/7 106/126/108 98/67/45
f 52/68/46 71/91/46 53/69/46
f 54/70/47 53/69/47 55/71/47
f 55/71/48 57/74/48 25/73/48
f 57/74/49 59/76/49 58/75/49
f 59/76/50 61/78/50 60/77/50
f 61/78/51 63/80/51 62/79/51
f 63/80/52 64/82/52 26/81/52
f 64/82/53 66/84/53 65/83/53
f 66/84/54 81/101/54 67/85/54
f 67/85/55 81/101/55 68/86/55
f 69/87/56 68/86/56 70/88/56
f 70/88/57 71/103/57 52/90/57
f 71/91/58 51/105/58 49/51/58
f 23/24/59 3/26/59 72/92/59
f 53/69/60 49/51/60 47/49/60
f 5/5/61 7/7/61 74/94/61
f 47/49/62 45/47/62 57/74/62
f 7/7/63 9/9/63 75/95/63
f 45/47/64 42/44/64 59/76/64
f 9/9/65 11/11/65 76/96/65
f 42/44/66 40/42/66 61/78/66
f 11/11/67 13/13/67 77/97/67
f 40/42/68 38/40/68 63/80/68
f 13/13/69 15/15/69 78/98/69
f 38/40/70 36/38/70 64/82/70
f 15/15/71 17/17/71 79/99/71
f 36/38/72 35/37/72 66/84/72
f 17/17/73 19/19/73 80/100/73
f 66/84/74 35/37/74 34/36/74
f 19/19/75 21/21/75 82/102/75
f 81/101/76 34/36/76 32/34/76
f 82/102/77 21/21/77 23/24/77
f 32/34/78 31/33/78 70/88/78
f 70/88/79 31/33/79 51/53/79
f 83/104/80 48/50/81 49/51/81
f 29/31/82 48/50/82 83/104/82
f 28/30/84 46/48/84 48/50/84
f 74/94/85 44/46/85 46/48/86
f 75/95/87 84/107/87 44/46/88
f 75/95/89 76/96/90 43/45/90
f 77/97/91 41/43/109 43/45/91
f 78/98/92 39/41/92 41/43/92
f 79/99/94 37/39/94 39/41/95
f 80/100/96 33/35/96 37/39/96
f 82/102/97 30/32/97 33/35/97
f 82/102/98 73/93/98 50/52/98
f 73/93/99 72/92/110 83/108/99
f 3/3/100 2/2/100 29/31/100
f 86/127/111 105/128/112 10/10/5
f 85/55/34 97/61/39 92/60/38
f 90/54/33 95/22/11 12/12/6
f 107/125/107 93/65/43 102/64/42
f 103/110/102 102/64/42 93/65/43
f 101/109/101 96/122/104 103/110/102
f 104/66/44 87/62/40 101/109/101
f 104/66/44 108/57/35 100/120/103
f 98/67/45 88/58/36 108/57/35
f 95/22/11 88/58/36 106/126/108
f 90/54/33 91/59/37 95/22/11
f 105/128/112 94/123/105 90/54/33
f 86/127/111 99/124/106 105/128/112
f 85/55/34 89/63/41 86/127/111
f 103/110/102 96/122/104 102/64/42
f 101/109/101 87/62/40 96/122/104
f 104/66/44 100/120/103 87/62/40
f 104/66/44 98/67/45 108/57/35
f 98/67/45 106/126/108 88/58/36
f 95/22/11 91/59/37 88/58/36
f 90/54/33 94/123/105 91/59/37
f 105/128/112 99/124/106 94/123/105
f 86/127/111 89/63/41 99/124/106
f 85/55/34 92/60/38 89/63/41
f 95/22/11 106/126/108 14/14/6
f 10/10/5 105/128/112 90/54/33
f 85/55/34 86/127/111 10/10/4
f 91/59/37 94/123/105 4/4/1
f 87/62/40 100/120/103 24/25/12
f 4/4/2 99/124/106 89/63/41
f 102/64/42 96/122/104 22/23/10
f 93/65/43 107/125/107 20/20/9
f 104/66/44 16/16/7 14/14/7
f 18/18/8 16/16/8 101/109/101
f 1/56/13 24/25/13 100/120/103
f 6/6/3 89/63/41 92/60/38
